<svg version="1.2" xmlns="http://www.w3.org/2000/svg" viewBox="0 0 52 52" width="52" height="52">
	<title>whatsapp-svg</title>
	<style>
		.s0 { fill: #79808b } 
	</style>
	<g id="Layer">
		<g id="Layer">
			<path id="Layer" fill-rule="evenodd" class="s0" d="m52 26c0 14.3-11.7 26-26 26-4.7 0-9.4-1.3-13.4-3.7l-10.3 3.2c-0.4 0.1-0.7 0-1-0.3-0.3-0.2-0.4-0.6-0.3-1 0.1 0 1.9-6.8 2.9-10.4-2.5-4.2-3.9-8.9-3.9-13.8 0-14.3 11.7-26 26-26 14.3 0 26 11.7 26 26zm-2 0c0-13.2-10.8-24-24-24-13.2 0-24 10.8-24 24 0 4.7 1.3 9.2 3.9 13.1 0.1 0.2 0.2 0.5 0.1 0.8-0.7 2.4-1.9 6.7-2.6 9.1l9-2.8q0.2 0 0.3 0 0.3 0 0.6 0.1c3.8 2.4 8.2 3.7 12.7 3.7 13.2 0 24-10.8 24-24z"/>
			<path id="Layer" fill-rule="evenodd" class="s0" d="m43.5 33.2c-1 5.7-4.3 8.5-10 8.5q-1.5 0-3.1-0.2c-9.8-1.5-17.4-10.4-20.3-18.1-2.7-7.1 3-12.9 3.2-13.1q0.2-0.2 0.5-0.3 3-0.6 3.9 0.3c0.6 0.6 3.8 6.3 3.8 7.7 0 1.3-0.7 2.5-2.5 4.4 0.3 1.5 2.1 3.8 4.9 6.1 2.8 2.3 5.6 3.9 6.1 4 0.6-0.1 2.3-2 3.7-4.1q0 0 0.1-0.1c0.4-0.4 1.4-0.8 2.6-0.2 0.5 0.2 1.1 0.7 2 1.2 1.2 0.8 2.7 1.8 4.6 2.8 0.4 0.2 0.6 0.6 0.5 1.1zm-2.1 0.3c-1.6-0.9-3-1.8-4.1-2.5-0.8-0.5-1.4-0.9-1.7-1.1q-0.3-0.1-0.4-0.1c-1.3 1.8-3.5 4.7-5.2 4.7-2 0-13-7.3-13-12.5q0-0.4 0.3-0.7c2-2 2.2-2.8 2.2-3.3-0.1-0.8-2.5-5.3-3.1-6.2-0.4-0.1-1.1 0-1.9 0.1-0.9 1.1-4.5 5.6-2.6 10.7 2 5.2 8.5 15.4 18.7 16.9 8 1.2 10-2.4 10.8-6z"/>
		</g>
	</g>
</svg>